<svg id="图层_1" data-name="图层 1" xmlns="http://www.w3.org/2000/svg" viewBox="0 0 283.46 283.46"><defs><style>.cls-1{fill:#fff;}</style></defs><path d="M141.73,0A141.73,141.73,0,1,0,283.46,141.73,141.74,141.74,0,0,0,141.73,0Zm-30,79.07h64.81l-9.93,32.6H101.81Zm89.12,86.19A79.87,79.87,0,0,1,189.44,189c-19.72,27.57-47,28.66-47,28.66H69.62l9.79-33.53h64.2l.57,0c6.18-.61,11-4.49,14.41-8.57a39.73,39.73,0,0,0,7.46-14.19l24.57-82.28h35.93Z"/><polygon class="cls-1" points="111.74 79.07 176.55 79.07 166.62 111.67 101.81 111.67 111.74 79.07"/><path class="cls-1" d="M200.86,165.26A79.87,79.87,0,0,1,189.44,189c-19.72,27.57-47,28.66-47,28.66H69.62l9.79-33.53h64.2l.57,0c6.18-.61,11-4.49,14.41-8.57a39.73,39.73,0,0,0,7.46-14.19l24.57-82.28h35.93Z"/></svg>