<svg id="图层_1" data-name="图层 1" xmlns="http://www.w3.org/2000/svg" viewBox="0 0 497.1 186"><defs><style>.cls-1{fill:#fff;}</style></defs><polygon class="cls-1" points="123.34 43.49 116.26 66.78 69.96 66.78 77.06 43.49 123.34 43.49"/><path class="cls-1" d="M159.06,43.5l-18.35,61.56a57.16,57.16,0,0,1-8.16,17C118.47,141.73,99,142.51,99,142.51H47l7-23.95H99.82l.41,0c4.41-.43,7.84-3.2,10.29-6.12a28.3,28.3,0,0,0,5.33-10.14L133.39,43.5Z"/><path class="cls-1" d="M175.41,43.5l-29.93,99H225.6l29.54-99Zm35.67,75.06H174.71l15.54-51.25h35.92Z"/><path class="cls-1" d="M370.4,43.5l-29.93,99h80.12l29.54-99Zm35.67,75.06H369.7l15.54-51.25h35.92Z"/><polygon class="cls-1" points="317.98 43.49 310.89 66.78 264.6 66.78 271.69 43.49 317.98 43.49"/><path class="cls-1" d="M353.69,43.5l-18.35,61.56a56.89,56.89,0,0,1-8.15,17c-14.09,19.69-33.59,20.47-33.59,20.47h-52l7-23.95h45.85l.41,0c4.42-.43,7.85-3.2,10.29-6.12a28.15,28.15,0,0,0,5.33-10.14L328,43.5Z"/></svg>